# 3ds Max Wavefront OBJ Exporter v0.97b - (c)2007 guruware
# 创建的文件:01.11.2019 15:53:13

mtllib coviMonitor.mtl

#
# object covi检测
#

v  2190517.500000000000 3542.916992187500 -164830.578125000000
v  2190499.000000000000 3542.916992187500 -164830.578125000000
v  2190489.750000000000 3559.013183593750 -164830.578125000000
v  2190499.000000000000 3575.109375000000 -164830.578125000000
v  2190517.500000000000 3575.109375000000 -164830.578125000000
v  2190526.750000000000 3559.013183593750 -164830.578125000000
v  2190671.250000000000 3503.761474609375 -164825.812500000000
v  2190635.250000000000 3503.761474609375 -164825.812500000000
v  2190606.250000000000 3524.865478515625 -164825.812500000000
v  2190595.250000000000 3559.012695312500 -164825.812500000000
v  2190606.250000000000 3593.159912109375 -164825.812500000000
v  2190635.250000000000 3614.263916015625 -164825.812500000000
v  2190671.250000000000 3614.263916015625 -164825.812500000000
v  2190700.250000000000 3593.159912109375 -164825.812500000000
v  2190711.250000000000 3559.012695312500 -164825.812500000000
v  2190700.250000000000 3524.865478515625 -164825.812500000000
v  2190688.500000000000 3542.916992187500 -164830.578125000000
v  2190670.000000000000 3542.916992187500 -164830.578125000000
v  2190660.750000000000 3559.013183593750 -164830.578125000000
v  2190670.000000000000 3575.109375000000 -164830.578125000000
v  2190688.500000000000 3575.109375000000 -164830.578125000000
v  2190697.750000000000 3559.013183593750 -164830.578125000000
v  2190463.500000000000 3542.916992187500 -164830.578125000000
v  2190445.000000000000 3542.916992187500 -164830.578125000000
v  2190435.750000000000 3559.013183593750 -164830.578125000000
v  2190445.000000000000 3575.109375000000 -164830.578125000000
v  2190463.500000000000 3575.109375000000 -164830.578125000000
v  2190472.750000000000 3559.013183593750 -164830.578125000000
v  2190539.250000000000 3559.012695312500 -164840.000000000000
v  2190528.250000000000 3593.159912109375 -164840.000000000000
v  2190528.250000000000 3593.159667968750 -164653.296875000000
v  2190539.250000000000 3559.012695312500 -164653.296875000000
v  2190499.250000000000 3614.263916015625 -164840.000000000000
v  2190499.250000000000 3614.263916015625 -164653.296875000000
v  2190463.250000000000 3614.263916015625 -164840.000000000000
v  2190463.250000000000 3614.263916015625 -164653.296875000000
v  2190434.250000000000 3593.159912109375 -164840.000000000000
v  2190434.250000000000 3593.159667968750 -164653.296875000000
v  2190423.250000000000 3559.012695312500 -164840.000000000000
v  2190423.250000000000 3559.012695312500 -164653.296875000000
v  2190434.250000000000 3524.865478515625 -164840.000000000000
v  2190434.250000000000 3524.865478515625 -164653.296875000000
v  2190463.250000000000 3503.761474609375 -164840.000000000000
v  2190463.250000000000 3503.761474609375 -164653.296875000000
v  2190499.250000000000 3503.761474609375 -164840.000000000000
v  2190499.250000000000 3503.761474609375 -164653.296875000000
v  2190528.250000000000 3524.865478515625 -164840.000000000000
v  2190528.250000000000 3524.865478515625 -164653.296875000000
v  2190401.000000000000 3476.097167968750 -164582.140625000000
v  2190561.500000000000 3476.097167968750 -164582.140625000000
v  2190561.500000000000 3641.928466796875 -164582.140625000000
v  2190401.000000000000 3641.928466796875 -164582.140625000000
v  2190401.000000000000 3476.097167968750 -164656.265625000000
v  2190401.000000000000 3641.928466796875 -164656.265625000000
v  2190561.500000000000 3641.928466796875 -164656.265625000000
v  2190561.500000000000 3476.097167968750 -164656.265625000000
v  2190711.250000000000 3559.012695312500 -164840.000000000000
v  2190700.250000000000 3593.159912109375 -164840.000000000000
v  2190700.250000000000 3593.159667968750 -164653.296875000000
v  2190711.250000000000 3559.012695312500 -164653.296875000000
v  2190671.250000000000 3614.263916015625 -164840.000000000000
v  2190671.250000000000 3614.263916015625 -164653.296875000000
v  2190635.250000000000 3614.263916015625 -164840.000000000000
v  2190635.250000000000 3614.263916015625 -164653.296875000000
v  2190606.250000000000 3593.159912109375 -164840.000000000000
v  2190606.250000000000 3593.159667968750 -164653.296875000000
v  2190595.250000000000 3559.012695312500 -164840.000000000000
v  2190595.250000000000 3559.012695312500 -164653.296875000000
v  2190606.250000000000 3524.865478515625 -164840.000000000000
v  2190606.250000000000 3524.865478515625 -164653.296875000000
v  2190635.250000000000 3503.761474609375 -164840.000000000000
v  2190635.250000000000 3503.761474609375 -164653.296875000000
v  2190671.250000000000 3503.761474609375 -164840.000000000000
v  2190671.250000000000 3503.761474609375 -164653.296875000000
v  2190700.250000000000 3524.865478515625 -164840.000000000000
v  2190700.250000000000 3524.865478515625 -164653.296875000000
v  2190573.000000000000 3476.097167968750 -164582.140625000000
v  2190733.500000000000 3476.097167968750 -164582.140625000000
v  2190733.500000000000 3641.928466796875 -164582.140625000000
v  2190573.000000000000 3641.928466796875 -164582.140625000000
v  2190573.000000000000 3476.097167968750 -164656.265625000000
v  2190573.000000000000 3641.928466796875 -164656.265625000000
v  2190733.500000000000 3641.928466796875 -164656.265625000000
v  2190733.500000000000 3476.097167968750 -164656.265625000000
v  2190638.500000000000 3542.916992187500 -164830.578125000000
v  2190620.000000000000 3542.916992187500 -164830.578125000000
v  2190610.750000000000 3559.013183593750 -164830.578125000000
v  2190620.000000000000 3575.109375000000 -164830.578125000000
v  2190638.500000000000 3575.109375000000 -164830.578125000000
v  2190647.750000000000 3559.013183593750 -164830.578125000000
v  2190499.250000000000 3503.761474609375 -164825.812500000000
v  2190463.250000000000 3503.761474609375 -164825.812500000000
v  2190434.250000000000 3524.865478515625 -164825.812500000000
v  2190423.250000000000 3559.012695312500 -164825.812500000000
v  2190434.250000000000 3593.159912109375 -164825.812500000000
v  2190463.250000000000 3614.263916015625 -164825.812500000000
v  2190499.250000000000 3614.263916015625 -164825.812500000000
v  2190528.250000000000 3593.159912109375 -164825.812500000000
v  2190539.250000000000 3559.012695312500 -164825.812500000000
v  2190528.250000000000 3524.865478515625 -164825.812500000000
# 100 vertices

vn 0.000000000000 0.000000000000 -1.000000000000
vn 1.000000000000 0.000000129564 0.000000185164
vn 0.809984087944 0.586451828480 0.000000278030
vn 0.809985280037 0.586450219154 0.000000581497
vn 1.000000000000 0.000001026543 -0.000000000000
vn 0.309384584427 0.950936973095 -0.000000000000
vn 0.309386909008 0.950936257839 0.000000488759
vn -0.309384882450 0.950936913490 0.000000488760
vn -0.309387177229 0.950936138630 -0.000000000000
vn -0.809983849525 0.586452186108 0.000000581501
vn -0.809984982014 0.586450636387 0.000000278032
vn -1.000000000000 -0.000000006229 -0.000000000000
vn -1.000000000000 0.000000916912 0.000000185165
vn -0.809984087944 -0.586451888084 -0.000000000000
vn -0.309384584427 -0.950936973095 -0.000000000000
vn 0.309384584427 -0.950936973095 -0.000000000000
vn 0.809984028339 -0.586451888084 -0.000000000000
vn 0.809984087944 -0.586451888084 -0.000000000000
vn -0.577350318432 -0.577350258827 0.577350258827
vn 0.577350258827 -0.577350258827 0.577350258827
vn 0.577350318432 0.577350258827 0.577350258827
vn -0.577350258827 0.577350258827 0.577350258827
vn -0.577350318432 -0.577350318432 -0.577350199223
vn -0.577350318432 0.577350258827 -0.577350258827
vn 0.577350318432 0.577350318432 -0.577350199223
vn 0.577350318432 -0.577350258827 -0.577350258827
# 26 vertex normals

g covi检测
usemtl bai
s 1
f -100//-26 -99//-26 -98//-26 
f -98//-26 -97//-26 -96//-26 
f -100//-26 -98//-26 -96//-26 
f -95//-26 -100//-26 -96//-26 
usemtl heidong
f -94//-26 -93//-26 -92//-26 
f -92//-26 -91//-26 -90//-26 
f -90//-26 -89//-26 -88//-26 
f -88//-26 -87//-26 -86//-26 
f -90//-26 -88//-26 -86//-26 
f -92//-26 -90//-26 -86//-26 
f -94//-26 -92//-26 -86//-26 
f -85//-26 -94//-26 -86//-26 
usemtl bai
f -84//-26 -83//-26 -82//-26 
f -82//-26 -81//-26 -80//-26 
f -84//-26 -82//-26 -80//-26 
f -79//-26 -84//-26 -80//-26 
f -78//-26 -77//-26 -76//-26 
f -76//-26 -75//-26 -74//-26 
f -78//-26 -76//-26 -74//-26 
f -73//-26 -78//-26 -74//-26 
f -72//-25 -71//-24 -70//-23 
f -70//-23 -69//-22 -72//-25 
f -71//-24 -68//-21 -67//-20 
f -67//-20 -70//-23 -71//-24 
f -68//-21 -66//-19 -65//-18 
f -65//-18 -67//-20 -68//-21 
f -66//-19 -64//-17 -63//-16 
f -63//-16 -65//-18 -66//-19 
f -64//-17 -62//-15 -61//-14 
f -61//-14 -63//-16 -64//-17 
f -62//-15 -60//-13 -59//-13 
f -59//-13 -61//-14 -62//-15 
f -60//-13 -58//-12 -57//-12 
f -57//-12 -59//-13 -60//-13 
f -58//-12 -56//-11 -55//-11 
f -55//-11 -57//-12 -58//-12 
f -56//-11 -54//-10 -53//-9 
f -53//-9 -55//-11 -56//-11 
f -54//-10 -72//-25 -69//-22 
f -69//-22 -53//-9 -54//-10 
f -52//-8 -51//-7 -50//-6 
f -50//-6 -49//-5 -52//-8 
f -48//-4 -47//-3 -46//-2 
f -46//-2 -45//-1 -48//-4 
f -52//-8 -48//-4 -45//-1 
f -45//-1 -51//-7 -52//-8 
f -51//-7 -45//-1 -46//-2 
f -46//-2 -50//-6 -51//-7 
f -50//-6 -46//-2 -47//-3 
f -47//-3 -49//-5 -50//-6 
f -49//-5 -47//-3 -48//-4 
f -48//-4 -52//-8 -49//-5 
f -44//-25 -43//-24 -42//-23 
f -42//-23 -41//-22 -44//-25 
f -43//-24 -40//-21 -39//-20 
f -39//-20 -42//-23 -43//-24 
f -40//-21 -38//-19 -37//-18 
f -37//-18 -39//-20 -40//-21 
f -38//-19 -36//-17 -35//-16 
f -35//-16 -37//-18 -38//-19 
f -36//-17 -34//-15 -33//-14 
f -33//-14 -35//-16 -36//-17 
f -34//-15 -32//-13 -31//-13 
f -31//-13 -33//-14 -34//-15 
f -32//-13 -30//-12 -29//-12 
f -29//-12 -31//-13 -32//-13 
f -30//-12 -28//-11 -27//-11 
f -27//-11 -29//-12 -30//-12 
f -28//-11 -26//-10 -25//-9 
f -25//-9 -27//-11 -28//-11 
f -26//-10 -44//-25 -41//-22 
f -41//-22 -25//-9 -26//-10 
f -24//-8 -23//-7 -22//-6 
f -22//-6 -21//-5 -24//-8 
f -20//-4 -19//-3 -18//-2 
f -18//-2 -17//-1 -20//-4 
f -24//-8 -20//-4 -17//-1 
f -17//-1 -23//-7 -24//-8 
f -23//-7 -17//-1 -18//-2 
f -18//-2 -22//-6 -23//-7 
f -22//-6 -18//-2 -19//-3 
f -19//-3 -21//-5 -22//-6 
f -21//-5 -19//-3 -20//-4 
f -20//-4 -24//-8 -21//-5 
f -16//-26 -15//-26 -14//-26 
f -14//-26 -13//-26 -12//-26 
f -16//-26 -14//-26 -12//-26 
f -11//-26 -16//-26 -12//-26 
usemtl heidong
f -10//-26 -9//-26 -8//-26 
f -8//-26 -7//-26 -6//-26 
f -6//-26 -5//-26 -4//-26 
f -4//-26 -3//-26 -2//-26 
f -6//-26 -4//-26 -2//-26 
f -8//-26 -6//-26 -2//-26 
f -10//-26 -8//-26 -2//-26 
f -1//-26 -10//-26 -2//-26 
# 96 faces

