# 3ds Max Wavefront OBJ Exporter v0.97b - (c)2007 guruware
# ´´½¨µÄÎÄ¼þ:22.12.2017 12:11:01

mtllib wifi.mtl

#
# object Box038
#

v  1095987.8750 2409.4756 -49965.0352
v  1095987.8750 2409.4756 -49969.5508
v  1095992.3750 2409.4756 -49969.5508
v  1095992.3750 2409.4756 -49965.0352
v  1095987.8750 2413.2163 -49965.0352
v  1095992.3750 2413.2163 -49965.0352
v  1095992.3750 2413.2163 -49969.5508
v  1095987.8750 2413.2163 -49969.5508
# 8 vertices

vn 0.0000 -1.0000 -0.0000
vn 0.0000 1.0000 -0.0000
vn 1.0000 0.0000 -0.0000
vn -1.0000 0.0000 -0.0000
# 4 vertex normals

vt 1.0000 0.0000 0.0000
vt 1.0000 2.4297 0.0000
vt -1.4297 2.4297 0.0000
vt -1.4297 0.0000 0.0000
vt 0.0000 0.0000 0.0000
vt 2.4297 0.0000 0.0000
vt 2.4297 2.4297 0.0000
vt 0.0000 2.4297 0.0000
vt 2.4297 11.8795 0.0000
vt 0.0000 11.8795 0.0000
# 10 texture coords

g Box038
usemtl ww
s 2
f 1/1/1 2/2/1 3/3/1 
f 3/3/1 4/4/1 1/1/1 
s 4
f 5/5/2 6/6/2 7/7/2 
f 7/7/2 8/8/2 5/5/2 
s 16
f 4/5/3 3/6/3 7/9/3 
f 7/9/3 6/10/3 4/5/3 
s 64
f 2/5/4 1/6/4 5/9/4 
f 5/9/4 8/10/4 2/5/4 
# 8 faces

#
# object Box040
#

v  1095982.7500 2411.2249 -49896.4492
v  1095982.7500 2414.8508 -49896.4492
v  1095992.0000 2414.8508 -49896.4492
v  1095992.0000 2411.2249 -49896.4492
v  1095983.3750 2411.7695 -49895.6523
v  1095991.3750 2411.7695 -49895.6523
v  1095991.3750 2414.3062 -49895.6523
v  1095983.3750 2414.3062 -49895.6523
# 8 vertices

vn 0.0000 0.0000 -1.0000
vn 0.0000 -0.0000 1.0000
vn 0.0000 -0.8256 0.5642
vn 0.8256 -0.0000 0.5642
vn 0.0000 0.8256 0.5642
vn -0.8256 -0.0000 0.5642
# 6 vertex normals

vt 1.0000 0.0000 0.0000
vt 1.0000 2.4297 0.0000
vt -1.4297 2.4297 0.0000
vt -1.4297 0.0000 0.0000
vt 0.0000 0.0000 0.0000
vt 2.4297 0.0000 0.0000
vt 2.4297 2.4297 0.0000
vt 0.0000 2.4297 0.0000
vt 2.4297 11.8795 0.0000
vt 0.0000 11.8795 0.0000
# 10 texture coords

g Box040
usemtl green
s 2
f 9/11/5 10/12/5 11/13/5 
f 11/13/5 12/14/5 9/11/5 
s 4
f 13/15/6 14/16/6 15/17/6 
f 15/17/6 16/18/6 13/15/6 
s 8
f 9/15/7 12/16/7 14/19/7 
f 14/19/7 13/20/7 9/15/7 
s 16
f 12/15/8 11/16/8 15/19/8 
f 15/19/8 14/20/8 12/15/8 
s 32
f 11/15/9 10/16/9 16/19/9 
f 16/19/9 15/20/9 11/15/9 
s 64
f 10/15/10 9/16/10 13/19/10 
f 13/19/10 16/20/10 10/15/10 
# 12 faces

#
# object Box042
#

v  1095941.7500 2411.2249 -49896.4492
v  1095941.7500 2414.8508 -49896.4492
v  1095951.0000 2414.8508 -49896.4492
v  1095951.0000 2411.2249 -49896.4492
v  1095942.3750 2411.7695 -49895.6523
v  1095950.3750 2411.7695 -49895.6523
v  1095950.3750 2414.3062 -49895.6523
v  1095942.3750 2414.3062 -49895.6523
# 8 vertices

vn 0.0000 0.0000 -1.0000
vn 0.0000 -0.0000 1.0000
vn 0.0000 -0.8256 0.5642
vn 0.8256 -0.0000 0.5642
vn 0.0000 0.8256 0.5642
vn -0.8256 -0.0000 0.5642
# 6 vertex normals

vt 1.0000 0.0000 0.0000
vt 1.0000 2.4297 0.0000
vt -1.4297 2.4297 0.0000
vt -1.4297 0.0000 0.0000
vt 0.0000 0.0000 0.0000
vt 2.4297 0.0000 0.0000
vt 2.4297 2.4297 0.0000
vt 0.0000 2.4297 0.0000
vt 2.4297 11.8795 0.0000
vt 0.0000 11.8795 0.0000
# 10 texture coords

g Box042
usemtl ggg
s 2
f 17/21/11 18/22/11 19/23/11 
f 19/23/11 20/24/11 17/21/11 
s 4
f 21/25/12 22/26/12 23/27/12 
f 23/27/12 24/28/12 21/25/12 
s 8
f 17/25/13 20/26/13 22/29/13 
f 22/29/13 21/30/13 17/25/13 
s 16
f 20/25/14 19/26/14 23/29/14 
f 23/29/14 22/30/14 20/25/14 
s 32
f 19/25/15 18/26/15 24/29/15 
f 24/29/15 23/30/15 19/25/15 
s 64
f 18/25/16 17/26/16 21/29/16 
f 21/29/16 24/30/16 18/25/16 
# 12 faces

#
# object Box043
#

v  1095931.3750 2411.2249 -49896.4492
v  1095931.3750 2414.8508 -49896.4492
v  1095940.6250 2414.8508 -49896.4492
v  1095940.6250 2411.2249 -49896.4492
v  1095932.0000 2411.7695 -49895.6523
v  1095940.0000 2411.7695 -49895.6523
v  1095940.0000 2414.3062 -49895.6523
v  1095932.0000 2414.3062 -49895.6523
# 8 vertices

vn 0.0000 0.0000 -1.0000
vn 0.0000 -0.0000 1.0000
vn 0.0000 -0.8256 0.5642
vn 0.8256 -0.0000 0.5642
vn 0.0000 0.8256 0.5642
vn -0.8256 -0.0000 0.5642
# 6 vertex normals

vt 1.0000 0.0000 0.0000
vt 1.0000 2.4297 0.0000
vt -1.4297 2.4297 0.0000
vt -1.4297 0.0000 0.0000
vt 0.0000 0.0000 0.0000
vt 2.4297 0.0000 0.0000
vt 2.4297 2.4297 0.0000
vt 0.0000 2.4297 0.0000
vt 2.4297 11.8795 0.0000
vt 0.0000 11.8795 0.0000
# 10 texture coords

g Box043
usemtl ggg
s 2
f 25/31/17 26/32/17 27/33/17 
f 27/33/17 28/34/17 25/31/17 
s 4
f 29/35/18 30/36/18 31/37/18 
f 31/37/18 32/38/18 29/35/18 
s 8
f 25/35/19 28/36/19 30/39/19 
f 30/39/19 29/40/19 25/35/19 
s 16
f 28/35/20 27/36/20 31/39/20 
f 31/39/20 30/40/20 28/35/20 
s 32
f 27/35/21 26/36/21 32/39/21 
f 32/39/21 31/40/21 27/35/21 
s 64
f 26/35/22 25/36/22 29/39/22 
f 29/39/22 32/40/22 26/35/22 
# 12 faces

#
# object Box036
#

v  1095913.3750 2401.9167 -49893.8750
v  1095913.3750 2401.9167 -49965.1953
v  1096005.3750 2401.9167 -49965.1953
v  1096005.3750 2401.9167 -49893.8750
v  1095913.3750 2425.9414 -49893.8750
v  1096005.3750 2425.9414 -49893.8750
v  1096005.3750 2425.9414 -49965.1953
v  1095913.3750 2425.9414 -49965.1953
v  1095917.0000 2405.4727 -49896.7617
v  1096001.7500 2405.4727 -49896.7617
v  1096001.7500 2422.3855 -49896.7617
v  1095917.0000 2422.3855 -49896.7617
v  1096001.7500 2405.4727 -49893.8750
v  1095917.0000 2405.4727 -49893.8750
v  1096001.7500 2422.3855 -49893.8750
v  1095917.0000 2422.3855 -49893.8750
# 16 vertices

vn 0.0000 -1.0000 -0.0000
vn 0.0000 1.0000 -0.0000
vn 0.0000 0.0000 1.0000
vn 1.0000 0.0000 -0.0000
vn 0.0000 0.0000 -1.0000
vn -1.0000 0.0000 -0.0000
# 6 vertex normals

vt 1.0000 0.0000 0.0000
vt 1.0000 28.0791 0.0000
vt -35.1777 28.0791 0.0000
vt -35.1777 0.0000 0.0000
vt 0.0000 0.0000 0.0000
vt 36.1777 0.0000 0.0000
vt 36.1777 28.0791 0.0000
vt 0.0000 28.0791 0.0000
vt 36.1777 22.6791 0.0000
vt 0.0000 22.6791 0.0000
vt 28.0791 0.0000 0.0000
vt 28.0791 22.6791 0.0000
# 12 texture coords

g Box036
usemtl ww
s 2
f 33/41/23 34/42/23 35/43/23 
f 35/43/23 36/44/23 33/41/23 
s 4
f 37/45/24 38/46/24 39/47/24 
f 39/47/24 40/48/24 37/45/24 
usemtl gggbbb
s 8
f 41/45/25 42/46/25 43/49/25 
f 43/49/25 44/50/25 41/45/25 
usemtl ww
s 16
f 36/45/26 35/51/26 39/52/26 
f 39/52/26 38/50/26 36/45/26 
s 32
f 35/45/27 34/46/27 40/49/27 
f 40/49/27 39/50/27 35/45/27 
s 64
f 34/45/28 33/51/28 37/52/28 
f 37/52/28 40/50/28 34/45/28 
s off
f 33/45/25 36/46/25 45/46/25 
f 45/46/25 46/45/25 33/45/25 
f 36/46/25 38/49/25 47/49/25 
f 47/49/25 45/46/25 36/46/25 
f 38/49/25 37/50/25 48/50/25 
f 48/50/25 47/49/25 38/49/25 
f 37/50/25 33/45/25 46/45/25 
f 46/45/25 48/50/25 37/50/25 
f 46/45/24 45/46/24 42/46/24 
f 42/46/24 41/45/24 46/45/24 
f 45/46/28 47/49/28 43/49/28 
f 43/49/28 42/46/28 45/46/28 
f 47/49/23 48/50/23 44/50/23 
f 44/50/23 43/49/23 47/49/23 
f 48/50/26 46/45/26 41/45/26 
f 41/45/26 44/50/26 48/50/26 
# 28 faces

#
# object Box041
#

v  1095952.1250 2411.2249 -49896.4492
v  1095952.1250 2414.8508 -49896.4492
v  1095961.3750 2414.8508 -49896.4492
v  1095961.3750 2411.2249 -49896.4492
v  1095952.7500 2411.7695 -49895.6523
v  1095960.7500 2411.7695 -49895.6523
v  1095960.7500 2414.3062 -49895.6523
v  1095952.7500 2414.3062 -49895.6523
# 8 vertices

vn 0.0000 0.0000 -1.0000
vn 0.0000 -0.0000 1.0000
vn 0.0000 -0.8256 0.5642
vn 0.8256 -0.0000 0.5642
vn 0.0000 0.8256 0.5642
vn -0.8256 -0.0000 0.5642
# 6 vertex normals

vt 1.0000 0.0000 0.0000
vt 1.0000 2.4297 0.0000
vt -1.4297 2.4297 0.0000
vt -1.4297 0.0000 0.0000
vt 0.0000 0.0000 0.0000
vt 2.4297 0.0000 0.0000
vt 2.4297 2.4297 0.0000
vt 0.0000 2.4297 0.0000
vt 2.4297 11.8795 0.0000
vt 0.0000 11.8795 0.0000
# 10 texture coords

g Box041
usemtl ggg
s 2
f 49/53/29 50/54/29 51/55/29 
f 51/55/29 52/56/29 49/53/29 
s 4
f 53/57/30 54/58/30 55/59/30 
f 55/59/30 56/60/30 53/57/30 
s 8
f 49/57/31 52/58/31 54/61/31 
f 54/61/31 53/62/31 49/57/31 
s 16
f 52/57/32 51/58/32 55/61/32 
f 55/61/32 54/62/32 52/57/32 
s 32
f 51/57/33 50/58/33 56/61/33 
f 56/61/33 55/62/33 51/57/33 
s 64
f 50/57/34 49/58/34 53/61/34 
f 53/61/34 56/62/34 50/57/34 
# 12 faces

#
# object Box039
#

v  1095988.2500 2438.2256 -49970.3477
v  1095988.2500 2438.2256 -49973.9727
v  1095992.0000 2438.2256 -49973.9727
v  1095992.0000 2438.2256 -49970.3477
v  1095988.8750 2455.9543 -49970.8906
v  1095991.3750 2455.9543 -49970.8906
v  1095991.3750 2455.9543 -49973.4297
v  1095988.8750 2455.9543 -49973.4297
# 8 vertices

vn 0.0000 -1.0000 -0.0000
vn 0.0000 1.0000 -0.0000
vn 0.0000 0.0307 0.9995
vn 0.9995 0.0307 -0.0000
vn 0.0000 0.0307 -0.9995
vn -0.9995 0.0307 -0.0000
# 6 vertex normals

vt 1.0000 0.0000 0.0000
vt 1.0000 2.4297 0.0000
vt -1.4297 2.4297 0.0000
vt -1.4297 0.0000 0.0000
vt 0.0000 0.0000 0.0000
vt 2.4297 0.0000 0.0000
vt 2.4297 2.4297 0.0000
vt 0.0000 2.4297 0.0000
vt 2.4297 11.8795 0.0000
vt 0.0000 11.8795 0.0000
# 10 texture coords

g Box039
usemtl ww
s 2
f 57/63/35 58/64/35 59/65/35 
f 59/65/35 60/66/35 57/63/35 
s 4
f 61/67/36 62/68/36 63/69/36 
f 63/69/36 64/70/36 61/67/36 
s 8
f 57/67/37 60/68/37 62/71/37 
f 62/71/37 61/72/37 57/67/37 
s 16
f 60/67/38 59/68/38 63/71/38 
f 63/71/38 62/72/38 60/67/38 
s 32
f 59/67/39 58/68/39 64/71/39 
f 64/71/39 63/72/39 59/67/39 
s 64
f 58/67/40 57/68/40 61/71/40 
f 61/71/40 64/72/40 58/67/40 
# 12 faces

#
# object Box037
#

v  1095987.0000 2409.4756 -49969.0742
v  1095987.0000 2409.4756 -49975.2461
v  1095993.2500 2409.4756 -49975.2461
v  1095993.2500 2409.4756 -49969.0742
v  1095988.0000 2439.6497 -49970.0000
v  1095992.2500 2439.6497 -49970.0000
v  1095992.2500 2439.6497 -49974.3203
v  1095988.0000 2439.6497 -49974.3203
# 8 vertices

vn 0.0000 -1.0000 -0.0000
vn 0.0000 1.0000 -0.0000
vn 0.0000 0.0307 0.9995
vn 0.9995 0.0307 -0.0000
vn 0.0000 0.0307 -0.9995
vn -0.9995 0.0307 -0.0000
# 6 vertex normals

vt 1.0000 0.0000 0.0000
vt 1.0000 2.4297 0.0000
vt -1.4297 2.4297 0.0000
vt -1.4297 0.0000 0.0000
vt 0.0000 0.0000 0.0000
vt 2.4297 0.0000 0.0000
vt 2.4297 2.4297 0.0000
vt 0.0000 2.4297 0.0000
vt 2.4297 11.8795 0.0000
vt 0.0000 11.8795 0.0000
# 10 texture coords

g Box037
usemtl ww
s 2
f 65/73/41 66/74/41 67/75/41 
f 67/75/41 68/76/41 65/73/41 
s 4
f 69/77/42 70/78/42 71/79/42 
f 71/79/42 72/80/42 69/77/42 
s 8
f 65/77/43 68/78/43 70/81/43 
f 70/81/43 69/82/43 65/77/43 
s 16
f 68/77/44 67/78/44 71/81/44 
f 71/81/44 70/82/44 68/77/44 
s 32
f 67/77/45 66/78/45 72/81/45 
f 72/81/45 71/82/45 67/77/45 
s 64
f 66/77/46 65/78/46 69/81/46 
f 69/81/46 72/82/46 66/77/46 
# 12 faces

#
# object Tube001
#

v  1095940.5000 2466.4783 -49935.4219
v  1095940.5000 2466.4783 -49926.3242
v  1095953.7500 2474.1318 -49926.3242
v  1095953.7500 2474.1318 -49935.4219
v  1095944.8750 2462.0481 -49926.3242
v  1095955.3750 2468.0803 -49926.3242
v  1095944.8750 2462.0481 -49935.4219
v  1095955.3750 2468.0803 -49935.4219
v  1095969.0000 2474.1318 -49926.3242
v  1095969.0000 2474.1318 -49935.4219
v  1095967.3750 2468.0803 -49926.3242
v  1095967.3750 2468.0803 -49935.4219
v  1095982.2500 2466.4783 -49926.3242
v  1095982.2500 2466.4783 -49935.4219
v  1095977.8750 2462.0481 -49926.3242
v  1095977.8750 2462.0481 -49935.4219
# 16 vertices

vn -0.5000 0.8660 -0.0000
vn -0.2588 0.9659 0.0000
vn -0.0000 -0.0000 1.0000
vn 0.5000 -0.8660 0.0000
vn 0.2588 -0.9659 -0.0000
vn 0.0000 0.0000 -1.0000
vn 0.2588 0.9659 0.0000
vn -0.2588 -0.9659 -0.0000
vn 0.5000 0.8660 0.0000
vn -0.5000 -0.8660 -0.0000
vn -0.7071 -0.7071 -0.0000
vn 0.7071 -0.7071 0.0000
# 12 vertex normals

vt 74.4599 0.0000 0.0000
vt 74.4599 6.2509 0.0000
vt 63.8228 6.2509 0.0000
vt 63.8228 0.0000 0.0000
vt 74.4599 10.5550 0.0000
vt 63.8228 10.5550 0.0000
vt 74.4599 16.8059 0.0000
vt 63.8228 16.8059 0.0000
vt 74.4599 21.1100 0.0000
vt 63.8228 21.1100 0.0000
vt 53.1857 6.2509 0.0000
vt 53.1857 0.0000 0.0000
vt 53.1857 10.5550 0.0000
vt 53.1857 16.8059 0.0000
vt 53.1857 21.1100 0.0000
vt 42.5485 6.2509 0.0000
vt 42.5485 0.0000 0.0000
vt 42.5485 10.5550 0.0000
vt 42.5485 16.8059 0.0000
vt 42.5485 21.1100 0.0000
# 20 texture coords

g Tube001
usemtl toumingb
s 2
f 73/83/47 74/84/47 75/85/48 
f 75/85/48 76/86/48 73/83/47 
s 4
f 74/84/49 77/87/49 78/88/49 
f 78/88/49 75/85/49 74/84/49 
s 2
f 77/87/50 79/89/50 80/90/51 
f 80/90/51 78/88/51 77/87/50 
s 4
f 79/89/52 73/91/52 76/92/52 
f 76/92/52 80/90/52 79/89/52 
s 2
f 76/86/48 75/85/48 81/93/53 
f 81/93/53 82/94/53 76/86/48 
s 4
f 75/85/49 78/88/49 83/95/49 
f 83/95/49 81/93/49 75/85/49 
s 2
f 78/88/51 80/90/51 84/96/54 
f 84/96/54 83/95/54 78/88/51 
s 4
f 80/90/52 76/92/52 82/97/52 
f 82/97/52 84/96/52 80/90/52 
s 2
f 82/94/53 81/93/53 85/98/55 
f 85/98/55 86/99/55 82/94/53 
s 4
f 81/93/49 83/95/49 87/100/49 
f 87/100/49 85/98/49 81/93/49 
s 2
f 83/95/54 84/96/54 88/101/56 
f 88/101/56 87/100/56 83/95/54 
s 4
f 84/96/52 82/97/52 86/102/52 
f 86/102/52 88/101/52 84/96/52 
s 1
f 77/87/57 74/84/57 73/83/57 
f 73/83/57 79/89/57 77/87/57 
f 88/99/58 86/95/58 85/96/58 
f 85/96/58 87/97/58 88/99/58 
# 28 faces

#
# object Tube002
#

v  1095924.6250 2482.7395 -49935.4219
v  1095924.6250 2482.7395 -49926.3242
v  1095947.8750 2496.1560 -49926.3242
v  1095947.8750 2496.1560 -49935.4219
v  1095932.3750 2474.9739 -49926.3242
v  1095950.6250 2485.5479 -49926.3242
v  1095932.3750 2474.9739 -49935.4219
v  1095950.6250 2485.5479 -49935.4219
v  1095974.6250 2496.1560 -49926.3242
v  1095974.6250 2496.1560 -49935.4219
v  1095971.8750 2485.5479 -49926.3242
v  1095971.8750 2485.5479 -49935.4219
v  1095997.8750 2482.7395 -49926.3242
v  1095997.8750 2482.7395 -49935.4219
v  1095990.1250 2474.9739 -49926.3242
v  1095990.1250 2474.9739 -49935.4219
# 16 vertices

vn -0.5000 0.8660 -0.0000
vn -0.2588 0.9659 0.0000
vn -0.0000 -0.0000 1.0000
vn 0.5000 -0.8660 0.0000
vn 0.2588 -0.9659 -0.0000
vn 0.0000 0.0000 -1.0000
vn 0.2588 0.9659 0.0000
vn -0.2588 -0.9659 -0.0000
vn 0.5000 0.8660 0.0000
vn -0.5000 -0.8660 -0.0000
vn 0.7071 -0.7071 0.0000
vn -0.7071 -0.7071 -0.0000
# 12 vertex normals

vt 74.4599 0.0000 0.0000
vt 74.4599 6.2509 0.0000
vt 63.8228 6.2509 0.0000
vt 63.8228 0.0000 0.0000
vt 74.4599 10.5550 0.0000
vt 63.8228 10.5550 0.0000
vt 74.4599 16.8059 0.0000
vt 63.8228 16.8059 0.0000
vt 74.4599 21.1100 0.0000
vt 63.8228 21.1100 0.0000
vt 53.1857 6.2509 0.0000
vt 53.1857 0.0000 0.0000
vt 53.1857 10.5550 0.0000
vt 53.1857 16.8059 0.0000
vt 53.1857 21.1100 0.0000
vt 42.5485 6.2509 0.0000
vt 42.5485 0.0000 0.0000
vt 42.5485 10.5550 0.0000
vt 42.5485 16.8059 0.0000
vt 42.5485 21.1100 0.0000
# 20 texture coords

g Tube002
usemtl toumingb
s 2
f 89/103/59 90/104/59 91/105/60 
f 91/105/60 92/106/60 89/103/59 
s 4
f 90/104/61 93/107/61 94/108/61 
f 94/108/61 91/105/61 90/104/61 
s 2
f 93/107/62 95/109/62 96/110/63 
f 96/110/63 94/108/63 93/107/62 
s 4
f 95/109/64 89/111/64 92/112/64 
f 92/112/64 96/110/64 95/109/64 
s 2
f 92/106/60 91/105/60 97/113/65 
f 97/113/65 98/114/65 92/106/60 
s 4
f 91/105/61 94/108/61 99/115/61 
f 99/115/61 97/113/61 91/105/61 
s 2
f 94/108/63 96/110/63 100/116/66 
f 100/116/66 99/115/66 94/108/63 
s 4
f 96/110/64 92/112/64 98/117/64 
f 98/117/64 100/116/64 96/110/64 
s 2
f 98/114/65 97/113/65 101/118/67 
f 101/118/67 102/119/67 98/114/65 
s 4
f 97/113/61 99/115/61 103/120/61 
f 103/120/61 101/118/61 97/113/61 
s 2
f 99/115/66 100/116/66 104/121/68 
f 104/121/68 103/120/68 99/115/66 
s 4
f 100/116/64 98/117/64 102/122/64 
f 102/122/64 104/121/64 100/116/64 
s 1
f 104/119/69 102/115/69 101/116/69 
f 101/116/69 103/117/69 104/119/69 
f 93/107/70 90/104/70 89/103/70 
f 89/103/70 95/109/70 93/107/70 
# 28 faces

#
# object Tube003
#

v  1095951.7500 2455.6228 -49935.4219
v  1095951.7500 2455.6228 -49926.3242
v  1095957.8750 2459.1301 -49926.3242
v  1095957.8750 2459.1301 -49935.4219
v  1095953.8750 2453.5928 -49926.3242
v  1095958.6250 2456.3569 -49926.3242
v  1095953.8750 2453.5928 -49935.4219
v  1095958.6250 2456.3569 -49935.4219
v  1095964.8750 2459.1301 -49926.3242
v  1095964.8750 2459.1301 -49935.4219
v  1095964.1250 2456.3569 -49926.3242
v  1095964.1250 2456.3569 -49935.4219
v  1095971.0000 2455.6228 -49926.3242
v  1095971.0000 2455.6228 -49935.4219
v  1095968.8750 2453.5928 -49926.3242
v  1095968.8750 2453.5928 -49935.4219
# 16 vertices

vn -0.5000 0.8660 -0.0000
vn -0.2588 0.9659 0.0000
vn -0.0000 -0.0000 1.0000
vn 0.5000 -0.8660 0.0000
vn 0.2588 -0.9659 -0.0000
vn 0.0000 0.0000 -1.0000
vn 0.2588 0.9659 0.0000
vn -0.2588 -0.9659 -0.0000
vn 0.5000 0.8660 0.0000
vn -0.5000 -0.8660 -0.0000
vn -0.7071 -0.7071 -0.0000
vn 0.7071 -0.7071 0.0000
# 12 vertex normals

vt 74.4599 0.0000 0.0000
vt 74.4599 6.2509 0.0000
vt 63.8228 6.2509 0.0000
vt 63.8228 0.0000 0.0000
vt 74.4599 10.5550 0.0000
vt 63.8228 10.5550 0.0000
vt 74.4599 16.8059 0.0000
vt 63.8228 16.8059 0.0000
vt 74.4599 21.1100 0.0000
vt 63.8228 21.1100 0.0000
vt 53.1857 6.2509 0.0000
vt 53.1857 0.0000 0.0000
vt 53.1857 10.5550 0.0000
vt 53.1857 16.8059 0.0000
vt 53.1857 21.1100 0.0000
vt 42.5485 6.2509 0.0000
vt 42.5485 0.0000 0.0000
vt 42.5485 10.5550 0.0000
vt 42.5485 16.8059 0.0000
vt 42.5485 21.1100 0.0000
# 20 texture coords

g Tube003
usemtl toumingb
s 2
f 105/123/71 106/124/71 107/125/72 
f 107/125/72 108/126/72 105/123/71 
s 4
f 106/124/73 109/127/73 110/128/73 
f 110/128/73 107/125/73 106/124/73 
s 2
f 109/127/74 111/129/74 112/130/75 
f 112/130/75 110/128/75 109/127/74 
s 4
f 111/129/76 105/131/76 108/132/76 
f 108/132/76 112/130/76 111/129/76 
s 2
f 108/126/72 107/125/72 113/133/77 
f 113/133/77 114/134/77 108/126/72 
s 4
f 107/125/73 110/128/73 115/135/73 
f 115/135/73 113/133/73 107/125/73 
s 2
f 110/128/75 112/130/75 116/136/78 
f 116/136/78 115/135/78 110/128/75 
s 4
f 112/130/76 108/132/76 114/137/76 
f 114/137/76 116/136/76 112/130/76 
s 2
f 114/134/77 113/133/77 117/138/79 
f 117/138/79 118/139/79 114/134/77 
s 4
f 113/133/73 115/135/73 119/140/73 
f 119/140/73 117/138/73 113/133/73 
s 2
f 115/135/78 116/136/78 120/141/80 
f 120/141/80 119/140/80 115/135/78 
s 4
f 116/136/76 114/137/76 118/142/76 
f 118/142/76 120/141/76 116/136/76 
s 1
f 109/127/81 106/124/81 105/123/81 
f 105/123/81 111/129/81 109/127/81 
f 120/139/82 118/135/82 117/136/82 
f 117/136/82 119/137/82 120/139/82 
# 28 faces
