# 3ds Max Wavefront OBJ Exporter v0.97b - (c)2007 guruware
# 创建的文件:30.10.2019 10:58:25

mtllib 可变情报板.mtl

#
# object 可变情报板
#

v  46632.7305 -177.7574 2336.1462
v  46632.7305 -56.1430 2336.1462
v  46848.9727 -56.1430 2336.1462
v  46848.9727 -177.7574 2336.1462
v  46632.7305 -177.7574 2342.0913
v  46848.9727 -177.7574 2342.0913
v  46848.9727 -56.1430 2342.0913
v  46632.7305 -56.1430 2342.0913
# 8 vertices

vn -0.5774 -0.5774 -0.5774
vn -0.5774 0.5774 -0.5774
vn 0.5774 0.5774 -0.5774
vn 0.5774 -0.5774 -0.5774
vn -0.5774 -0.5774 0.5774
vn 0.5774 -0.5774 0.5774
vn 0.5774 0.5774 0.5774
vn -0.5774 0.5774 0.5774
# 8 vertex normals

vt 0.9756 0.4407 0.0000
vt 0.9756 0.9797 0.0000
vt 0.0173 0.9797 0.0000
vt 0.0173 0.4407 0.0000
vt 0.6766 0.3828 0.0000
vt 0.0241 0.3828 0.0000
vt 0.0241 0.0159 0.0000
vt 0.6766 0.0159 0.0000
vt 0.6951 0.4156 0.0000
vt 0.0426 0.4156 0.0000
vt 0.0426 0.3976 0.0000
vt 0.6951 0.3976 0.0000
vt 0.8114 0.4100 0.0000
vt 0.4444 0.4100 0.0000
vt 0.4444 0.3921 0.0000
vt 0.8114 0.3921 0.0000
vt 0.6766 0.4210 0.0000
vt 0.0241 0.4210 0.0000
vt 0.0241 0.4031 0.0000
vt 0.6766 0.4031 0.0000
vt 0.4013 0.4100 0.0000
vt 0.0344 0.4100 0.0000
vt 0.0344 0.3921 0.0000
vt 0.4013 0.3921 0.0000
# 24 texture coords

g 可变情报板
usemtl pingmu
s 1
f 1/1/1 2/2/2 3/3/3 
f 3/3/3 4/4/4 1/1/1 
f 5/5/5 6/6/6 7/7/7 
f 7/7/7 8/8/8 5/5/5 
f 1/9/1 4/10/4 6/11/6 
f 6/11/6 5/12/5 1/9/1 
f 4/13/4 3/14/3 7/15/7 
f 7/15/7 6/16/6 4/13/4 
f 3/17/3 2/18/2 8/19/8 
f 8/19/8 7/20/7 3/17/3 
f 2/21/2 1/22/1 5/23/5 
f 5/23/5 8/24/8 2/21/2 
# 0 polygons - 12 triangles

