# 3ds Max Wavefront OBJ Exporter v0.97b - (c)2007 guruware
# File Created: 29.12.2017 16:59:45

mtllib ????.mtl

#
# object Object001
#

v  2192866.5000 3189.9128 -159109.3125
v  2193018.7500 2333.1150 -159109.3125
v  2193018.7500 2333.1167 -170327.3906
v  2192866.5000 3189.9146 -170327.3906
v  2192425.7500 3953.3120 -159109.3125
v  2192425.7500 3953.3140 -170327.3906
v  2191750.5000 4519.9282 -159109.3125
v  2191750.5000 4519.9297 -170327.3906
v  2190922.2500 4821.4180 -159109.3125
v  2190922.2500 4821.4199 -170327.3906
v  2190040.7500 4821.4180 -159109.3125
v  2190040.7500 4821.4199 -170327.3906
v  2189212.5000 4519.9277 -159109.3125
v  2189212.5000 4519.9297 -170327.3906
v  2188537.2500 3953.3120 -159109.3125
v  2188537.2500 3953.3140 -170327.3906
v  2188096.5000 3189.9131 -159109.3125
v  2188096.5000 3189.9148 -170327.3906
v  2187944.2500 2333.1155 -159109.3125
v  2187944.2500 2333.1172 -170327.3906
v  2192814.7500 2297.1750 -170327.3906
v  2192814.7500 2297.1733 -159109.3125
v  2192672.0000 3119.1216 -159109.3125
v  2192672.0000 3119.1233 -170327.3906
v  2192267.2500 3820.2681 -159109.3125
v  2192267.2500 3820.2700 -170327.3906
v  2191647.0000 4340.6782 -159109.3125
v  2191647.0000 4340.6797 -170327.3906
v  2190886.2500 4617.5825 -159109.3125
v  2190886.2500 4617.5840 -170327.3906
v  2190076.7500 4617.5820 -159109.3125
v  2190076.7500 4617.5840 -170327.3906
v  2189316.0000 4340.6777 -159109.3125
v  2189316.0000 4340.6797 -170327.3906
v  2188695.7500 3820.2681 -159109.3125
v  2188695.7500 3820.2700 -170327.3906
v  2188291.0000 3119.1216 -159109.3125
v  2188291.0000 3119.1233 -170327.3906
v  2188148.2500 2297.1736 -159109.3125
v  2188148.2500 2297.1755 -170327.3906
v  2192569.7500 2296.6055 -170327.4063
v  2192569.7500 2296.6055 -159109.3125
v  2192569.7500 2394.6326 -159109.3125
v  2192569.7500 2394.6326 -170327.3906
v  2192815.0000 2296.6055 -159109.3125
v  2192797.2500 2394.6326 -159109.3125
v  2192797.2500 2394.6326 -170327.3906
v  2192815.0000 2296.6055 -170327.4063
v  2188393.0000 2296.6055 -170327.4063
v  2188393.0000 2394.6326 -170327.3906
v  2188393.0000 2394.6326 -159109.3125
v  2188393.0000 2296.6055 -159109.3125
v  2188165.5000 2394.6326 -159109.3125
v  2188147.7500 2296.6055 -159109.3125
v  2188165.5000 2394.6326 -170327.3906
v  2188147.7500 2296.6055 -170327.4063
# 56 vertices

vn 0.9395 0.3426 0.0000
vn 0.9846 0.1748 0.0000
vn 0.9846 0.1748 -0.0000
vn 0.7660 0.6428 0.0000
vn 0.5000 0.8660 0.0000
vn 0.1736 0.9848 0.0000
vn -0.1736 0.9848 0.0000
vn -0.5000 0.8660 0.0000
vn -0.7660 0.6428 0.0000
vn -0.9395 0.3426 0.0000
vn -0.9846 0.1748 0.0000
vn -0.9853 -0.1711 -0.0000
vn -0.9853 -0.1711 0.0000
vn -0.9401 -0.3408 -0.0000
vn -0.7660 -0.6428 -0.0000
vn -0.5000 -0.8660 -0.0000
vn -0.1736 -0.9848 -0.0000
vn 0.1736 -0.9848 -0.0000
vn 0.5000 -0.8660 -0.0000
vn 0.7660 -0.6428 -0.0000
vn 0.9401 -0.3408 -0.0000
vn 0.9853 -0.1711 0.0000
vn 0.9853 -0.1711 -0.0000
vn 0.0000 0.0000 -1.0000
vn 0.0000 -0.0000 1.0000
vn -0.0000 0.0000 -1.0000
vn -0.0000 -0.0000 1.0000
vn -1.0000 -0.0000 0.0000
vn -0.0000 0.0000 1.0000
vn 0.0000 1.0000 -0.0000
vn 1.0000 -0.0000 0.0000
vn -0.0000 1.0000 -0.0000
# 32 vertex normals

vt 0.9802 0.9082 0.0000
vt 0.9802 0.9815 0.0000
vt 0.0202 0.9815 0.0000
vt 0.0202 0.9082 0.0000
vt 0.9802 0.8429 0.0000
vt 0.0202 0.8429 0.0000
vt 0.9802 0.7851 0.0000
vt 0.0202 0.7851 0.0000
vt 0.9802 0.7142 0.0000
vt 0.0202 0.7142 0.0000
vt 0.9802 0.6387 0.0000
vt 0.0202 0.6387 0.0000
vt 0.9802 0.5679 0.0000
vt 0.0202 0.5679 0.0000
vt 0.9802 0.5101 0.0000
vt 0.0202 0.5101 0.0000
vt 0.9802 0.4447 0.0000
vt 0.0202 0.4447 0.0000
vt 0.9802 0.3714 0.0000
vt 0.0202 0.3714 0.0000
vt 0.0160 0.3719 0.0000
vt 0.9820 0.3719 0.0000
vt 0.9820 0.4482 0.0000
vt 0.0160 0.4482 0.0000
vt 0.9820 0.5133 0.0000
vt 0.0160 0.5133 0.0000
vt 0.9820 0.5709 0.0000
vt 0.0160 0.5709 0.0000
vt 0.9820 0.6415 0.0000
vt 0.0160 0.6415 0.0000
vt 0.9820 0.7166 0.0000
vt 0.0160 0.7166 0.0000
vt 0.9820 0.7872 0.0000
vt 0.0160 0.7872 0.0000
vt 0.9820 0.8448 0.0000
vt 0.0160 0.8448 0.0000
vt 0.9820 0.9099 0.0000
vt 0.0160 0.9099 0.0000
vt 0.9820 0.9861 0.0000
vt 0.0160 0.9861 0.0000
vt 0.0540 0.0313 0.0000
vt 0.0702 0.1249 0.0000
vt 0.0481 0.1330 0.0000
vt 0.0307 0.0354 0.0000
vt 0.5692 0.1249 0.0000
vt 0.5854 0.0313 0.0000
vt 0.6087 0.0354 0.0000
vt 0.5913 0.1330 0.0000
vt 0.1163 0.2048 0.0000
vt 0.0983 0.2199 0.0000
vt 0.5231 0.2048 0.0000
vt 0.5411 0.2199 0.0000
vt 0.1870 0.2640 0.0000
vt 0.1752 0.2845 0.0000
vt 0.4524 0.2640 0.0000
vt 0.4642 0.2845 0.0000
vt 0.2736 0.2956 0.0000
vt 0.2695 0.3188 0.0000
vt 0.3658 0.2956 0.0000
vt 0.3699 0.3188 0.0000
vt 0.4525 0.2640 0.0000
vt 0.4643 0.2845 0.0000
vt 0.1869 0.2640 0.0000
vt 0.1751 0.2845 0.0000
vt 0.5412 0.2199 0.0000
vt 0.0982 0.2199 0.0000
vt 0.5914 0.1330 0.0000
vt 0.0480 0.1330 0.0000
vt 0.5855 0.0313 0.0000
vt 0.0539 0.0313 0.0000
vt 0.9800 0.5109 0.0000
vt 0.0200 0.5109 0.0000
vt 0.0200 0.5193 0.0000
vt 0.9800 0.5193 0.0000
vt 0.0200 0.6974 0.0000
vt 0.0410 0.6974 0.0000
vt 0.0395 0.6890 0.0000
vt 0.0200 0.6890 0.0000
vt 0.9800 0.4830 0.0000
vt 0.9800 0.4635 0.0000
vt 0.0200 0.4635 0.0000
vt 0.0200 0.4830 0.0000
vt 0.0200 0.6758 0.0000
vt 0.0395 0.6758 0.0000
vt 0.0410 0.6675 0.0000
vt 0.0200 0.6675 0.0000
# 86 texture coords

g Object001
usemtl Material__25
s 8
f 1/1/1 2/2/2 3/3/3 
f 3/3/3 4/4/1 1/1/1 
f 5/5/4 1/1/1 4/4/1 
f 4/4/1 6/6/4 5/5/4 
f 7/7/5 5/5/4 6/6/4 
f 6/6/4 8/8/5 7/7/5 
f 9/9/6 7/7/5 8/8/5 
f 8/8/5 10/10/6 9/9/6 
f 11/11/7 9/9/6 10/10/6 
f 10/10/6 12/12/7 11/11/7 
f 13/13/8 11/11/7 12/12/7 
f 12/12/7 14/14/8 13/13/8 
f 15/15/9 13/13/8 14/14/8 
f 14/14/8 16/16/9 15/15/9 
f 17/17/10 15/15/9 16/16/9 
f 16/16/9 18/18/10 17/17/10 
f 19/19/11 17/17/10 18/18/10 
f 18/18/10 20/20/11 19/19/11 
f 21/21/12 22/22/13 23/23/14 
f 23/23/14 24/24/14 21/21/12 
f 24/24/14 23/23/14 25/25/15 
f 25/25/15 26/26/15 24/24/14 
f 26/26/15 25/25/15 27/27/16 
f 27/27/16 28/28/16 26/26/15 
f 28/28/16 27/27/16 29/29/17 
f 29/29/17 30/30/17 28/28/16 
f 30/30/17 29/29/17 31/31/18 
f 31/31/18 32/32/18 30/30/17 
f 32/32/18 31/31/18 33/33/19 
f 33/33/19 34/34/19 32/32/18 
f 34/34/19 33/33/19 35/35/20 
f 35/35/20 36/36/20 34/34/19 
f 36/36/20 35/35/20 37/37/21 
f 37/37/21 38/38/21 36/36/20 
f 38/38/21 37/37/21 39/39/22 
f 39/39/22 40/40/23 38/38/21 
usemtl Material__26
s 1
f 21/41/24 24/42/24 4/43/24 
f 4/43/24 3/44/24 21/41/24 
f 23/45/25 22/46/25 2/47/25 
f 2/47/25 1/48/25 23/45/25 
f 24/42/24 26/49/24 6/50/24 
f 6/50/24 4/43/24 24/42/24 
f 25/51/25 23/45/25 1/48/25 
f 1/48/25 5/52/25 25/51/25 
f 26/49/24 28/53/24 8/54/24 
f 8/54/24 6/50/24 26/49/24 
f 27/55/25 25/51/25 5/52/25 
f 5/52/25 7/56/25 27/55/25 
f 28/53/24 30/57/24 10/58/24 
f 10/58/24 8/54/24 28/53/24 
f 29/59/25 27/55/25 7/56/25 
f 7/56/25 9/60/25 29/59/25 
f 30/57/24 32/59/24 12/60/24 
f 12/60/24 10/58/24 30/57/24 
f 31/57/25 29/59/25 9/60/25 
f 9/60/25 11/58/25 31/57/25 
f 32/59/24 34/61/26 14/62/26 
f 14/62/26 12/60/24 32/59/24 
f 33/63/25 31/57/25 11/58/25 
f 11/58/25 13/64/25 33/63/25 
f 34/61/26 36/51/26 16/65/26 
f 16/65/26 14/62/26 34/61/26 
f 35/49/25 33/63/25 13/64/25 
f 13/64/25 15/66/25 35/49/25 
f 36/51/26 38/45/24 18/67/26 
f 18/67/26 16/65/26 36/51/26 
f 37/42/27 35/49/25 15/66/25 
f 15/66/25 17/68/25 37/42/27 
f 38/45/24 40/69/26 20/47/26 
f 20/47/26 18/67/26 38/45/24 
f 39/70/25 37/42/27 17/68/25 
f 17/68/25 19/44/25 39/70/25 
s 2
f 41/71/28 42/72/28 43/73/28 
f 43/73/28 44/74/28 41/71/28 
s 16
f 42/75/29 45/76/29 46/77/29 
f 46/77/29 43/78/25 42/75/29 
s 32
f 43/79/30 46/80/30 47/81/30 
f 47/81/30 44/82/30 43/79/30 
s 64
f 44/83/24 47/84/24 48/85/24 
f 48/85/24 41/86/24 44/83/24 
s 2
f 49/71/31 50/74/31 51/73/31 
f 51/73/31 52/72/31 49/71/31 
s 16
f 52/75/25 51/78/25 53/77/25 
f 53/77/25 54/76/25 52/75/25 
s 32
f 51/79/32 50/82/32 55/81/32 
f 55/81/32 53/80/32 51/79/32 
s 64
f 50/83/24 49/86/24 56/85/24 
f 56/85/24 55/84/24 50/83/24 
# 88 faces

